{"title":"30 Minutes or Less (2011) R5 NL subs DutchReleaseTeam","uid":6786205,"size":737747212,"categoryP":"video","categoryS":"movies","magnet":"?xt=urn:btih:7dc1cf1b4300e1e269d67a988a3fc2631cea4760&amp;dn=30+Minutes+or+Less+%282011%29+R5+NL+subs+DutchReleaseTeam&amp;tr=udp%3A%2F%2Ftracker.openbittorrent.com%3A80&amp;tr=udp%3A%2F%2Fopen.demonii.com%3A1337&amp;tr=udp%3A%2F%2Ftracker.coppersurfer.tk%3A6969&amp;tr=udp%3A%2F%2Fexodus.desync.com%3A6969","seeders":0,"leechers":0,"uploader":"Koedje","files":-1,"time":1320099867,"description":" &lt;a href=&quot;http://img846.imageshack.us/img846/7247/30mins.jpg&quot; rel=&quot;nofollow&quot; target=&quot;_NEW&quot;&gt;http://img846.imageshack.us/img846/7247/30mins.jpg&lt;/a&gt;\n\n\nCanada / Verenigde Staten / Duitsland\nAvontuur / Komedie\n83 minuten\n\ngeregisseerd door Ruben Fleischer\nmet Jesse Eisenberg, Danny McBride en Aziz Ansari\n\nNick (Jesse Eisenberg) is een pizzabezorger in een klein dorpje. Zijn leventje wordt op z\\'n kop gezet wanneer twee wannabe-gangsters (Danny McBride en Nick Swardson) hem kidnappen en hem dwingen een bank te overvallen. Nick krijgt hiervoor slechts weinig tijd en hij roept de hulp in van z\\'n vroegere beste vriend, Chet (Aziz Ansari). In een race tegen de klok moeten de twee omgaan met de politie, huurmoordenaars, vlammenwerpers en hun eigen vertroebelde relatie.\n\n\n\nVertaald door Simply Release Toppers:\nMarkow87 &amp; Tokke\n\n\n\n\n\n\nScreenshots:\n &lt;a href=&quot;\nhttp://img802.imageshack.us/img802/6184/screenshot1q.jpg&quot; rel=&quot;nofollow&quot; target=&quot;_NEW&quot;&gt;\nhttp://img802.imageshack.us/img802/6184/screenshot1q.jpg&lt;/a&gt;\n &lt;a href=&quot;\nhttp://img196.imageshack.us/img196/7300/screenshot2bk.jpg&quot; rel=&quot;nofollow&quot; target=&quot;_NEW&quot;&gt;\nhttp://img196.imageshack.us/img196/7300/screenshot2bk.jpg&lt;/a&gt;\n &lt;a href=&quot;\nhttp://img266.imageshack.us/img266/1503/screenshot3az.jpg&quot; rel=&quot;nofollow&quot; target=&quot;_NEW&quot;&gt;\nhttp://img266.imageshack.us/img266/1503/screenshot3az.jpg&lt;/a&gt;\n &lt;a href=&quot;\nhttp://img510.imageshack.us/img510/4851/screenshot4ps.jpg&quot; rel=&quot;nofollow&quot; target=&quot;_NEW&quot;&gt;\nhttp://img510.imageshack.us/img510/4851/screenshot4ps.jpg&lt;/a&gt;\n\n\n\nINFO;\n\n\nVideo\nID                                       : 0\nFormat                                   : MPEG-4 Visual\nFormat profile                           : Advanced Simple@L5\nFormat settings, BVOP                    : 1\nFormat settings, QPel                    : No\nFormat settings, GMC                     : No warppoints\nFormat settings, Matrix                  : Default (H.263)\nMuxing mode                              : Packed bitstream\nCodec ID                                 : XVID\nCodec ID/Hint                            : XviD\nDuration                                 : 1h 19mn\nBit rate                                 : 1 090 Kbps\nWidth                                    : 640 pixels\nHeight                                   : 272 pixels\nDisplay aspect ratio                     : 2.35:1\nFrame rate                               : 25.000 fps\nColor space                              : YUV\nChroma subsampling                       : 4:2:0\nBit depth                                : 8 bits\nScan type                                : Progressive\nCompression mode                         : Lossy\nBits/(Pixel*Frame)                       : 0.250\nStream size                              : 621 MiB (89%)\nWriting library                          : XviD 64\n\nAudio\nID                                       : 1\nFormat                                   : MPEG Audio\nFormat version                           : Version 1\nFormat profile                           : Layer 3\nMode                                     : Joint stereo\nMode extension                           : MS Stereo\nCodec ID                                 : 55\nCodec ID/Hint                            : MP3\nDuration                                 : 1h 19mn\nBit rate mode                            : Constant\nBit rate                                 : 128 Kbps\nChannel(s)                               : 2 channels\nSampling rate                            : 44.1 KHz\nCompression mode                         : Lossy\nStream size                              : 73.0 MiB (10%)\nAlignment                                : Split accross interleaves\nInterleave, duration                     : 40 ms (1.00 video frame)\nInterleave, preload duration             : 500 ms\n\n\n\n\n &lt;a href=&quot;\nhttp://www.imdb.com/title/tt1622547/&quot; rel=&quot;nofollow&quot; target=&quot;_NEW&quot;&gt;\nhttp://www.imdb.com/title/tt1622547/&lt;/a&gt; &lt;a href=&quot;\nhttp://www.moviemeter.nl/film/73020&quot; rel=&quot;nofollow&quot; target=&quot;_NEW&quot;&gt;\nhttp://www.moviemeter.nl/film/73020&lt;/a&gt;\n\n\n\n\n\nDeze film wordt u aangeboden door het DutchReleaseTeam.\nVoor de reviews van de nieuwste films, muziek, series, games etc\nga dan eens naar http://www.hetmultimediacafe.be\n\nDutchReleaseteam = Hardcoded Dutch Subs","torrent":{"xt":"urn:btih:7dc1cf1b4300e1e269d67a988a3fc2631cea4760","amp;dn":"30+Minutes+or+Less+%282011%29+R5+NL+subs+DutchReleaseTeam","amp;tr":["udp%3A%2F%2Ftracker.openbittorrent.com%3A80","udp%3A%2F%2Fopen.demonii.com%3A1337","udp%3A%2F%2Ftracker.coppersurfer.tk%3A6969","udp%3A%2F%2Fexodus.desync.com%3A6969"],"infoHash":"7dc1cf1b4300e1e269d67a988a3fc2631cea4760","infoHashBuffer":{"type":"Buffer","data":[125,193,207,27,67,0,225,226,105,214,122,152,138,63,194,99,28,234,71,96]},"announce":[],"urlList":[]}}